{"title":"18+.RED.SPARROW.2018.720p.HC.HDRip.AC3.LLG","magnet":"magnet:?xt=urn:btih:d49e2bd0cd151245d46299f9992faae609589397&dn=18%2B.RED.SPARROW.2018.720p.HC.HDRip.AC3.LLG&tr=udp%3A%2F%2Ftracker.leechers-paradise.org%3A6969&tr=udp%3A%2F%2Fzer0day.ch%3A1337&tr=udp%3A%2F%2Fopen.demonii.com%3A1337&tr=udp%3A%2F%2Ftracker.coppersurfer.tk%3A6969&tr=udp%3A%2F%2Fexodus.desync.com%3A6969","uploader":"LifeLongg","categoryP":"video","categoryS":"hd___movies","size":"1197561779","seeders":"30","leechers":"84","description":"******************************Screenshots:********************\r\n <a href=\"\nhttp://picserver4u.com/d/0471.html\" rel=\"nofollow\" target=\"_NEW\">\nhttp://picserver4u.com/d/0471.html</a>\r\n <a href=\"\nhttp://picserver4u.com/d/0472.html\" rel=\"nofollow\" target=\"_NEW\">\nhttp://picserver4u.com/d/0472.html</a>\r\n <a href=\"\nhttp://picserver4u.com/d/0473.html\" rel=\"nofollow\" target=\"_NEW\">\nhttp://picserver4u.com/d/0473.html</a>\r\n <a href=\"\nhttp://picserver4u.com/d/0474.html\" rel=\"nofollow\" target=\"_NEW\">\nhttp://picserver4u.com/d/0474.html</a>\r\n <a href=\"\nhttp://picserver4u.com/d/0475.html\" rel=\"nofollow\" target=\"_NEW\">\nhttp://picserver4u.com/d/0475.html</a>\r\n\r\n************************************************************** \r\n\r\nComplete name                            : 18+.RED.SPARROW.2018.720p.HC.HDRip.AC3.LLG.mp4\r\nFormat                                   : MPEG-4\r\nFormat profile                           : Base Media\r\nCodec ID                                 : isom (isom/iso2/avc1/mp41)\r\nFile size                                : 1.09 GiB\r\nDuration                                 : 2 h 15 min\r\nOverall bit rate                         : 1 148 kb/s\r\nWriting application                      : Lavf57.56.101\r\n\r\nVideo\r\nID                                       : 1\r\nFormat                                   : AVC\r\nFormat/Info                              : Advanced Video Codec\r\nFormat profile                           : <a href=\"/cdn-cgi/l/email-protection\" class=\"__cf_email__\" data-cfemail=\"1159787679515d223f20\">[email&#xA0;protected]</a>\r\nFormat settings                          : CABAC / 4 Ref Frames\r\nFormat settings, CABAC                   : Yes\r\nFormat settings, RefFrames               : 4 frames\r\nCodec ID                                 : avc1\r\nCodec ID/Info                            : Advanced Video Coding\r\nDuration                                 : 2 h 15 min\r\nBit rate                                 : 900 kb/s\r\nWidth                                    : 1 280 pixels\r\nHeight                                   : 720 pixels\r\nDisplay aspect ratio                     : 2.40:1\r\nOriginal display aspect ratio            : 2.40:1\r\nFrame rate mode                          : Constant\r\nFrame rate                               : 29.970 (29970/1000) FPS\r\nColor space                              : YUV\r\nChroma subsampling                       : 4:2:0\r\nBit depth                                : 8 bits\r\nScan type                                : Progressive\r\nBits/(Pixel*Frame)                       : 0.033\r\nStream size                              : 861 MiB (77%)\r\n\r\nAudio\r\nID                                       : 2\r\nFormat                                   : AC-3\r\nFormat/Info                              : Audio Coding 3\r\nCodec ID                                 : ac-3\r\nDuration                                 : 2 h 15 min\r\nBit rate mode                            : Constant\r\nBit rate                                 : 256 kb/s\r\nChannel(s)                               : 2 channels\r\nChannel positions                        : Front: L R\r\nSampling rate                            : 48.0 kHz\r\nFrame rate                               : 31.250 FPS (1536 SPF)\r\nBit depth                                : 16 bits\r\nCompression mode                         : Lossy\r\nStream size                              : 249 MiB (22%)\r\nLanguage                                 : English\r\nService kind                             : Complete Main\r\nDefault                                  : Yes\r\nAlternate group                          : 1","last_updated":"2018-04-16T16:49:00.649Z","parsed":{"xt":"urn:btih:d49e2bd0cd151245d46299f9992faae609589397","dn":"18 .RED.SPARROW.2018.720p.HC.HDRip.AC3.LLG","tr":["udp://exodus.desync.com:6969","udp://open.demonii.com:1337","udp://tracker.coppersurfer.tk:6969","udp://tracker.leechers-paradise.org:6969","udp://zer0day.ch:1337"],"infoHash":"d49e2bd0cd151245d46299f9992faae609589397","infoHashBuffer":{"type":"Buffer","data":[212,158,43,208,205,21,18,69,212,98,153,249,153,47,170,230,9,88,147,151]},"name":"18 .RED.SPARROW.2018.720p.HC.HDRip.AC3.LLG","announce":["udp://exodus.desync.com:6969","udp://open.demonii.com:1337","udp://tracker.coppersurfer.tk:6969","udp://tracker.leechers-paradise.org:6969","udp://zer0day.ch:1337"],"urlList":[]}}